<?xml version="1.0" encoding="utf-8"?>
<!-- Generator: Adobe Illustrator 16.0.0, SVG Export Plug-In . SVG Version: 6.00 Build 0)  -->
<!DOCTYPE svg PUBLIC "-//W3C//DTD SVG 1.1//EN" "http://www.w3.org/Graphics/SVG/1.1/DTD/svg11.dtd">
<svg version="1.1" id="Layer_1" xmlns="http://www.w3.org/2000/svg" xmlns:xlink="http://www.w3.org/1999/xlink" x="0px" y="0px"
	 width="400px" height="76.232px" viewBox="0 0 400 76.232" enable-background="new 0 0 400 76.232" xml:space="preserve">
<g>
	<g>
		<path fill="#6957A5" d="M305.434,45.103c1.182,0.452,2.327,0.961,3.531,1.337c8.174,2.588,16.509,4.77,24.494,7.826
			c6.218,2.379,12.018,5.841,17.991,8.833c0.267,0.122,0.544,0.307,0.684,0.539c0.242,0.417,0.382,0.897,0.566,1.337
			c-0.544,0.099-1.169,0.405-1.586,0.231c-1.146-0.457-2.153-1.221-3.299-1.685c-4.399-1.783-8.753-3.762-13.268-5.192
			c-13.45-4.249-27.076-7.89-40.969-10.391c-1.679-0.301-3.369-0.59-4.979-1.111c-1.481-0.48-2.859-1.337-2.778-3.213
			c0.093-1.8,1.39-2.808,2.906-3.149c3.67-0.805,7.386-1.395,11.091-2.026c14.992-2.593,29.961-5.297,44.985-7.688
			c8.938-1.424,17.945-2.333,26.905-3.525c1.69-0.226,3.346-0.724,5.002-1.1c0.022-0.278,0.046-0.562,0.069-0.845
			c-0.961-0.405-1.876-0.972-2.871-1.192c-7.873-1.696-15.71-3.641-23.641-4.903c-15.896-2.53-31.823-4.892-47.788-6.912
			c-10.94-1.389-21.973-2.176-32.972-3.039c-7.907-0.631-15.837-1.001-23.756-1.383c-4.318-0.203-4.874,0.335-5.742,4.619
			c-4.354,21.534-8.37,48.792-9.019,57.718c-0.093,1.285-0.348,2.57-0.648,3.821c-0.116,0.503-0.544,0.938-0.846,1.395
			c-0.439-0.399-1.157-0.724-1.308-1.21c-0.88-3.155-2.061-6.31-2.374-9.534c-1.134-11.484,2.188-26.865,5.071-39.443
			c1.019-4.417,1.922-8.862,2.778-13.32c0.567-2.923-0.486-4.347-3.473-4.358c-8.278-0.041-16.567,0.041-24.856,0.15
			c-4.689,0.063-9.389,0.26-14.089,0.417c-20.688,0.654-41.238,2.866-61.729,5.754c-18.521,2.617-36.876,6.078-55.023,10.553
			c-16.451,4.063-32.647,8.972-48.074,16.104c-4.972,2.304-9.661,5.123-13.765,8.816c-2.234,2.014-2.119,4.041,0.231,5.835
			c3.38,2.576,7.456,3.062,11.427,3.803c2.819,0.527,5.69,0.897,8.561,1.06c1.598,0.098,3.219-0.539,4.833-0.539
			c2.987,0.006,5.98,0.249,8.973,0.382c6.037,0.249,12.086,0.59,18.135,0.718c19.085,0.399,38.17,0.781,57.258,1.053
			c8.764,0.122,17.517-0.005,26.28-0.029c0.996-0.006,1.991-0.017,2.987-0.104c1.447-0.122,1.945-0.874,1.841-2.385
			c-0.127-1.725-0.058-3.497,0.208-5.204c0.231-1.5-0.255-2.223-1.667-2.182c-2.582,0.063-5.164,0.26-7.734,0.399
			c-5.927,0.324-11.855,0.706-17.782,0.92c-2.038,0.076-4.11-0.197-6.136-0.457c-0.879-0.11-1.702-0.602-2.544-0.92
			c0-0.191,0-0.388,0-0.579c0.842-0.243,1.665-0.59,2.521-0.718c11.728-1.702,23.467-3.369,35.206-5.042
			c1.575-0.22,3.149-0.365,4.724-0.55c2.107-0.261,3.959,0.278,5.522,1.736c1.273,1.192,1.296,2.003,0.104,3.299
			c-0.069,0.081-0.15,0.186-0.255,0.243c-4.885,3.016-2.119,7.71,1.378,9.615c1.852,1.001,3.878,1.667,5.8,2.542
			c1.771,0.816,2.651,2.587,2.142,4.556c-0.382,1.464-1.424,3.01-3.774,2.963c-16.092-0.307-32.173-0.573-48.276-0.683
			c-17.867-0.127-35.73,0.098-53.6-0.162c-15.265-0.22-30.529-1.007-45.637-3.479c-5.227-0.845-10.448-1.916-14.778-5.308
			c-2.437-1.91-4.243-4.214-4.283-7.554c-0.023-2.408,0.961-4.335,2.541-6.014c4.88-5.181,10.836-8.822,17.232-11.774
			C44.5,25.364,65.987,19.459,87.879,14.788c18.871-4.023,37.901-7.056,57.049-9.262c13.765-1.586,27.577-3.021,41.412-3.635
			c18.477-0.822,37-1.285,55.489-0.961c15.722,0.278,31.455,1.5,47.107,3.027c17.354,1.696,34.674,3.925,51.921,6.455
			c15.351,2.257,30.563,5.372,45.544,9.464c2.305,0.619,4.527,1.632,6.669,2.715c1.562,0.787,2.755,2.142,2.593,4.086
			c-0.162,1.939-1.296,3.404-3.091,3.937c-2.408,0.706-4.897,1.239-7.386,1.557c-13.465,1.708-26.964,3.137-40.404,5.036
			c-11.624,1.644-23.187,3.757-34.775,5.713c-1.562,0.266-3.068,0.822-4.596,1.244C305.423,44.478,305.434,44.791,305.434,45.103"/>
		<path fill="#6957A5" d="M363.977,70.283c-1.436-0.006-2.28-0.677-2.292-1.823c0-1.001,0.822-1.806,1.853-1.8
			c1.412,0,2.512,0.949,2.489,2.136C365.992,69.803,365.332,70.289,363.977,70.283"/>
	</g>
</g>
</svg>
